<mxfile host="65bd71144e">
    <diagram id="wf08DeAgzF71G0P4F8W8" name="Page-1">
        <mxGraphModel dx="2893" dy="3804" grid="1" gridSize="10" guides="1" tooltips="1" connect="1" arrows="1" fold="1" page="1" pageScale="1" pageWidth="1100" pageHeight="850" background="none" math="0" shadow="1">
            <root>
                <mxCell id="0"/>
                <mxCell id="1" parent="0"/>
                <mxCell id="192" value="" style="rounded=0;whiteSpace=wrap;html=1;labelBackgroundColor=none;fontFamily=Times New Roman;fontSize=30;fontColor=default;fillColor=none;gradientColor=none;strokeWidth=7;strokeColor=#FF0000;" vertex="1" parent="1">
                    <mxGeometry x="-860" y="-340" width="2620" height="1090" as="geometry"/>
                </mxCell>
                <mxCell id="191" value="&amp;nbsp;" style="rounded=0;whiteSpace=wrap;html=1;labelBackgroundColor=none;fontFamily=Times New Roman;fontSize=30;fontColor=default;fillColor=none;gradientColor=none;strokeWidth=7;strokeColor=#3333FF;" vertex="1" parent="1">
                    <mxGeometry x="-271" y="950" width="2655" height="1710" as="geometry"/>
                </mxCell>
                <mxCell id="30" value="" style="edgeStyle=none;html=1;entryX=0;entryY=0.5;entryDx=0;entryDy=0;fontFamily=Times New Roman;fontSize=21;fontColor=#000000;strokeWidth=6;" edge="1" parent="1" source="2" target="29">
                    <mxGeometry x="-0.0362" y="10" relative="1" as="geometry">
                        <mxPoint as="offset"/>
                    </mxGeometry>
                </mxCell>
                <mxCell id="2" value="&lt;font size=&quot;1&quot; face=&quot;Times New Roman&quot; color=&quot;#000000&quot;&gt;&lt;b style=&quot;font-size: 59px;&quot;&gt;START&lt;/b&gt;&lt;/font&gt;" style="ellipse;whiteSpace=wrap;html=1;fillColor=#d0cee2;strokeColor=#56517e;labelBackgroundColor=none;" vertex="1" parent="1">
                    <mxGeometry x="-280" y="-237.5" width="390" height="275" as="geometry"/>
                </mxCell>
                <mxCell id="5" value="&lt;b style=&quot;&quot;&gt;&lt;font color=&quot;#ff0000&quot; style=&quot;font-size: 60px;&quot;&gt;STUDENT FLOWCHART&lt;/font&gt;&lt;/b&gt;" style="text;html=1;strokeColor=none;fillColor=none;align=center;verticalAlign=middle;whiteSpace=wrap;rounded=0;fontFamily=Times New Roman;fontSize=27;fontColor=#FFFFFF;labelBackgroundColor=#514b58;" vertex="1" parent="1">
                    <mxGeometry x="-710" y="320" width="600" height="70" as="geometry"/>
                </mxCell>
                <mxCell id="25" style="edgeStyle=none;html=1;entryX=0;entryY=0.5;entryDx=0;entryDy=0;fontFamily=Times New Roman;fontSize=26;fontColor=#000000;startArrow=none;strokeWidth=6;exitX=1;exitY=0.5;exitDx=0;exitDy=0;" edge="1" parent="1" source="48" target="24">
                    <mxGeometry relative="1" as="geometry"/>
                </mxCell>
                <mxCell id="27" style="edgeStyle=none;html=1;fontFamily=Times New Roman;fontSize=26;fontColor=#000000;startArrow=none;strokeWidth=6;entryX=0.929;entryY=0.433;entryDx=0;entryDy=0;entryPerimeter=0;" edge="1" parent="1" source="46" target="26">
                    <mxGeometry relative="1" as="geometry"/>
                </mxCell>
                <mxCell id="13" value="&lt;font size=&quot;1&quot; color=&quot;#000000&quot;&gt;&lt;b style=&quot;font-size: 24px; background-color: rgb(255, 255, 255);&quot;&gt;Checking Credentials if Matched or unmatched in the Database.&lt;/b&gt;&lt;/font&gt;" style="rhombus;whiteSpace=wrap;html=1;labelBackgroundColor=none;strokeColor=#56517e;fontFamily=Times New Roman;fontSize=19;fillColor=#d0cee2;" vertex="1" parent="1">
                    <mxGeometry x="900" y="90" width="270" height="205" as="geometry"/>
                </mxCell>
                <mxCell id="93" style="edgeStyle=none;shape=connector;rounded=1;html=1;entryX=0;entryY=0.5;entryDx=0;entryDy=0;labelBackgroundColor=default;strokeColor=default;strokeWidth=6;fontFamily=Times New Roman;fontSize=30;fontColor=default;endArrow=classic;" edge="1" parent="1" source="17" target="92">
                    <mxGeometry relative="1" as="geometry"/>
                </mxCell>
                <mxCell id="17" value="&lt;font color=&quot;#000000&quot;&gt;&lt;b style=&quot;font-size: 17px;&quot;&gt;Proceeding to Registering Personal Security information in the System.&lt;/b&gt;&lt;/font&gt;" style="shape=or;whiteSpace=wrap;html=1;labelBackgroundColor=none;strokeColor=#56517e;fontFamily=Times New Roman;fontSize=19;fillColor=#d0cee2;align=left;" vertex="1" parent="1">
                    <mxGeometry x="990" y="510" width="210" height="140" as="geometry"/>
                </mxCell>
                <mxCell id="22" value="&lt;font size=&quot;1&quot; face=&quot;Times New Roman&quot; color=&quot;#000000&quot;&gt;&lt;b style=&quot;font-size: 100px;&quot;&gt;END&lt;/b&gt;&lt;/font&gt;" style="ellipse;whiteSpace=wrap;html=1;fillColor=#d0cee2;strokeColor=#56517e;labelBackgroundColor=none;" vertex="1" parent="1">
                    <mxGeometry x="7110" y="-3350" width="1000" height="660" as="geometry"/>
                </mxCell>
                <mxCell id="89" style="edgeStyle=none;shape=connector;rounded=1;html=1;labelBackgroundColor=default;strokeColor=default;strokeWidth=6;fontFamily=Times New Roman;fontSize=28;fontColor=default;endArrow=classic;" edge="1" parent="1" source="24" target="88">
                    <mxGeometry relative="1" as="geometry"/>
                </mxCell>
                <mxCell id="91" style="edgeStyle=none;shape=connector;rounded=1;html=1;entryX=0.5;entryY=1;entryDx=0;entryDy=0;labelBackgroundColor=default;strokeColor=default;strokeWidth=6;fontFamily=Times New Roman;fontSize=30;fontColor=default;endArrow=classic;exitX=0.75;exitY=0;exitDx=0;exitDy=0;" edge="1" parent="1" source="24" target="90">
                    <mxGeometry relative="1" as="geometry">
                        <mxPoint x="2210" y="-100" as="sourcePoint"/>
                    </mxGeometry>
                </mxCell>
                <mxCell id="24" value="&lt;font size=&quot;1&quot; color=&quot;#000000&quot;&gt;&lt;b style=&quot;font-size: 46px;&quot;&gt;Dashboard&amp;nbsp;&lt;/b&gt;&lt;/font&gt;" style="rounded=0;whiteSpace=wrap;html=1;labelBackgroundColor=none;fontFamily=Times New Roman;fontSize=27;fillColor=#d0cee2;strokeColor=#56517e;align=center;" vertex="1" parent="1">
                    <mxGeometry x="1771" y="-82.63" width="539" height="316.25" as="geometry"/>
                </mxCell>
                <mxCell id="37" style="edgeStyle=none;html=1;fontFamily=Times New Roman;fontSize=21;fontColor=#000000;startArrow=none;strokeWidth=6;" edge="1" parent="1" source="44" target="29">
                    <mxGeometry relative="1" as="geometry"/>
                </mxCell>
                <mxCell id="38" style="edgeStyle=none;html=1;entryX=0.292;entryY=0.014;entryDx=0;entryDy=0;entryPerimeter=0;fontFamily=Times New Roman;fontSize=21;fontColor=#000000;startArrow=none;strokeWidth=6;" edge="1" parent="1" source="40" target="34">
                    <mxGeometry relative="1" as="geometry">
                        <Array as="points">
                            <mxPoint x="161" y="340"/>
                        </Array>
                    </mxGeometry>
                </mxCell>
                <mxCell id="42" style="edgeStyle=none;html=1;fontFamily=Times New Roman;fontSize=21;fontColor=#FFFFFF;strokeWidth=6;" edge="1" parent="1" source="26" target="40">
                    <mxGeometry relative="1" as="geometry"/>
                </mxCell>
                <mxCell id="26" value="&lt;font size=&quot;1&quot; color=&quot;#000000&quot;&gt;&lt;b style=&quot;font-size: 25px;&quot;&gt;Relogin or Sign Up?&lt;/b&gt;&lt;/font&gt;" style="rhombus;whiteSpace=wrap;html=1;labelBackgroundColor=none;strokeColor=#56517e;fontFamily=Times New Roman;fontSize=19;fillColor=#d0cee2;" vertex="1" parent="1">
                    <mxGeometry x="428.75" y="240" width="270" height="205" as="geometry"/>
                </mxCell>
                <mxCell id="33" style="edgeStyle=none;html=1;entryX=0;entryY=0;entryDx=0;entryDy=0;fontFamily=Times New Roman;fontSize=21;fontColor=#000000;strokeWidth=6;" edge="1" parent="1" source="29" target="13">
                    <mxGeometry relative="1" as="geometry"/>
                </mxCell>
                <mxCell id="29" value="&lt;div style=&quot;&quot;&gt;&lt;b style=&quot;color: rgb(0, 0, 0); background-color: initial;&quot;&gt;Sign In: Input Student&lt;br&gt;Email or Student ID and&amp;nbsp;&lt;br&gt;Password.&lt;/b&gt;&lt;/div&gt;" style="shape=parallelogram;perimeter=parallelogramPerimeter;whiteSpace=wrap;html=1;fixedSize=1;labelBackgroundColor=none;strokeColor=#56517e;fontFamily=Times New Roman;fontSize=26;fillColor=#d0cee2;align=center;" vertex="1" parent="1">
                    <mxGeometry x="410" y="-160" width="307.5" height="120" as="geometry"/>
                </mxCell>
                <mxCell id="53" style="edgeStyle=none;html=1;entryX=0;entryY=0.5;entryDx=0;entryDy=0;fontFamily=Times New Roman;fontSize=17;fontColor=#FFFFFF;strokeWidth=6;" edge="1" parent="1" source="34" target="52">
                    <mxGeometry relative="1" as="geometry"/>
                </mxCell>
                <mxCell id="34" value="&lt;font color=&quot;#000000&quot;&gt;&lt;b style=&quot;font-size: 18px;&quot;&gt;Proceeding to Register your email, password and Student code or ID number in the Systerm.&lt;/b&gt;&lt;/font&gt;" style="shape=or;whiteSpace=wrap;html=1;labelBackgroundColor=none;strokeColor=#56517e;fontFamily=Times New Roman;fontSize=19;fillColor=#d0cee2;align=left;" vertex="1" parent="1">
                    <mxGeometry x="100" y="510" width="210" height="140" as="geometry"/>
                </mxCell>
                <mxCell id="40" value="&lt;font style=&quot;font-size: 28px;&quot; color=&quot;#ffffff&quot;&gt;Sign Up&lt;/font&gt;" style="text;html=1;align=center;verticalAlign=middle;whiteSpace=wrap;rounded=0;labelBackgroundColor=none;fontFamily=Times New Roman;fontSize=21;" vertex="1" parent="1">
                    <mxGeometry x="240" y="327.5" width="100" height="30" as="geometry"/>
                </mxCell>
                <mxCell id="45" value="" style="edgeStyle=none;html=1;fontFamily=Times New Roman;fontSize=21;fontColor=#000000;endArrow=none;strokeWidth=6;" edge="1" parent="1" source="26" target="44">
                    <mxGeometry relative="1" as="geometry">
                        <mxPoint x="563.75" y="239.99999999999977" as="sourcePoint"/>
                        <mxPoint x="563.75" y="-40" as="targetPoint"/>
                    </mxGeometry>
                </mxCell>
                <mxCell id="44" value="&lt;font style=&quot;font-size: 28px;&quot; color=&quot;#ffffff&quot;&gt;Relogin&lt;/font&gt;" style="text;html=1;align=center;verticalAlign=middle;whiteSpace=wrap;rounded=0;labelBackgroundColor=none;fontFamily=Times New Roman;fontSize=21;" vertex="1" parent="1">
                    <mxGeometry x="513.75" y="90" width="100" height="30" as="geometry"/>
                </mxCell>
                <mxCell id="47" value="" style="edgeStyle=none;html=1;fontFamily=Times New Roman;fontSize=26;fontColor=#000000;endArrow=none;strokeWidth=6;" edge="1" parent="1" source="13" target="46">
                    <mxGeometry relative="1" as="geometry">
                        <mxPoint x="872.56168204248" y="140.00053636558664" as="sourcePoint"/>
                        <mxPoint x="636.1883179575195" y="294.99946363441313" as="targetPoint"/>
                    </mxGeometry>
                </mxCell>
                <mxCell id="46" value="&lt;font style=&quot;font-size: 28px;&quot; color=&quot;#ffffff&quot;&gt;Unmatched&lt;/font&gt;" style="text;html=1;align=center;verticalAlign=middle;whiteSpace=wrap;rounded=0;labelBackgroundColor=none;fontFamily=Times New Roman;fontSize=21;" vertex="1" parent="1">
                    <mxGeometry x="780" y="257.5" width="100" height="30" as="geometry"/>
                </mxCell>
                <mxCell id="49" value="" style="edgeStyle=none;html=1;entryX=0;entryY=0.5;entryDx=0;entryDy=0;fontFamily=Times New Roman;fontSize=26;fontColor=#000000;endArrow=none;strokeWidth=6;exitX=1;exitY=0;exitDx=0;exitDy=0;" edge="1" parent="1" source="13" target="48">
                    <mxGeometry relative="1" as="geometry">
                        <mxPoint x="1140" y="180" as="sourcePoint"/>
                        <mxPoint x="1280" y="92.5" as="targetPoint"/>
                        <Array as="points">
                            <mxPoint x="1150" y="80"/>
                        </Array>
                    </mxGeometry>
                </mxCell>
                <mxCell id="48" value="&lt;font style=&quot;font-size: 28px;&quot; color=&quot;#ffffff&quot;&gt;Matched&lt;/font&gt;" style="text;html=1;align=center;verticalAlign=middle;whiteSpace=wrap;rounded=0;labelBackgroundColor=none;fontFamily=Times New Roman;fontSize=21;" vertex="1" parent="1">
                    <mxGeometry x="1320" y="61.49" width="100" height="30" as="geometry"/>
                </mxCell>
                <mxCell id="54" style="edgeStyle=none;html=1;entryX=0;entryY=0.5;entryDx=0;entryDy=0;entryPerimeter=0;fontFamily=Times New Roman;fontSize=17;fontColor=#FFFFFF;strokeWidth=6;" edge="1" parent="1" source="52" target="17">
                    <mxGeometry relative="1" as="geometry"/>
                </mxCell>
                <mxCell id="52" value="&lt;div style=&quot;&quot;&gt;&lt;font style=&quot;font-size: 19px;&quot; color=&quot;#000000&quot;&gt;&lt;b style=&quot;&quot;&gt;&lt;span style=&quot;white-space: pre;&quot;&gt;&#9;&lt;/span&gt;Sign Up(Personal Information): First name, Last name, Middle name, Suffix(optional), Age, Course and Section.&lt;/b&gt;&lt;/font&gt;&lt;/div&gt;" style="shape=parallelogram;perimeter=parallelogramPerimeter;whiteSpace=wrap;html=1;fixedSize=1;labelBackgroundColor=none;strokeColor=#56517e;fontFamily=Times New Roman;fontSize=26;fillColor=#d0cee2;align=center;" vertex="1" parent="1">
                    <mxGeometry x="470" y="520" width="340" height="120" as="geometry"/>
                </mxCell>
                <mxCell id="63" style="edgeStyle=none;html=1;entryX=1;entryY=0.5;entryDx=0;entryDy=0;entryPerimeter=0;fontFamily=Times New Roman;fontSize=18;fontColor=#FFFFFF;startArrow=none;strokeWidth=6;" edge="1" parent="1" source="66" target="61">
                    <mxGeometry relative="1" as="geometry">
                        <Array as="points">
                            <mxPoint x="1480" y="-100"/>
                        </Array>
                    </mxGeometry>
                </mxCell>
                <mxCell id="80" style="edgeStyle=none;shape=connector;rounded=1;html=1;entryX=0.25;entryY=1;entryDx=0;entryDy=0;labelBackgroundColor=default;strokeColor=default;strokeWidth=6;fontFamily=Times New Roman;fontSize=46;fontColor=default;endArrow=classic;startArrow=none;exitX=1.012;exitY=0.499;exitDx=0;exitDy=0;exitPerimeter=0;" edge="1" parent="1" source="82">
                    <mxGeometry relative="1" as="geometry">
                        <mxPoint x="1797" y="312.69444444444434" as="sourcePoint"/>
                        <mxPoint x="1902.75" y="233.6199999999999" as="targetPoint"/>
                        <Array as="points">
                            <mxPoint x="1903" y="313"/>
                        </Array>
                    </mxGeometry>
                </mxCell>
                <mxCell id="55" value="&lt;font size=&quot;1&quot; color=&quot;#000000&quot;&gt;&lt;b style=&quot;font-size: 26px;&quot;&gt;Proceed to &lt;br&gt;Dashboard or &lt;br&gt;Relogin?&lt;/b&gt;&lt;/font&gt;" style="rhombus;whiteSpace=wrap;html=1;labelBackgroundColor=none;strokeColor=#56517e;fontFamily=Times New Roman;fontSize=19;fillColor=#d0cee2;" vertex="1" parent="1">
                    <mxGeometry x="1340" y="210" width="270" height="205" as="geometry"/>
                </mxCell>
                <mxCell id="62" style="edgeStyle=none;html=1;entryX=1;entryY=0.5;entryDx=0;entryDy=0;fontFamily=Times New Roman;fontSize=18;fontColor=#FFFFFF;strokeWidth=6;" edge="1" parent="1" source="61" target="29">
                    <mxGeometry relative="1" as="geometry"/>
                </mxCell>
                <mxCell id="61" value="&lt;font size=&quot;1&quot; color=&quot;#000000&quot;&gt;&lt;b style=&quot;font-size: 26px;&quot;&gt;Proceeding to Login Page&lt;/b&gt;&lt;/font&gt;" style="shape=or;whiteSpace=wrap;html=1;labelBackgroundColor=none;strokeColor=#56517e;fontFamily=Times New Roman;fontSize=19;fillColor=#d0cee2;align=left;" vertex="1" parent="1">
                    <mxGeometry x="1110" y="-170" width="210" height="140" as="geometry"/>
                </mxCell>
                <mxCell id="67" value="" style="edgeStyle=none;html=1;entryX=0.5;entryY=1;entryDx=0;entryDy=0;fontFamily=Times New Roman;fontSize=18;fontColor=#FFFFFF;endArrow=none;strokeWidth=6;" edge="1" parent="1" source="55" target="66">
                    <mxGeometry relative="1" as="geometry">
                        <mxPoint x="1604.0536561702907" y="240.71852031514982" as="sourcePoint"/>
                        <mxPoint x="1601.56" y="-27.47999999999979" as="targetPoint"/>
                    </mxGeometry>
                </mxCell>
                <mxCell id="66" value="&lt;font style=&quot;font-size: 28px;&quot; color=&quot;#ffffff&quot;&gt;Relogin&lt;/font&gt;" style="text;html=1;align=center;verticalAlign=middle;whiteSpace=wrap;rounded=0;labelBackgroundColor=none;fontFamily=Times New Roman;fontSize=21;" vertex="1" parent="1">
                    <mxGeometry x="1430" y="-30" width="100" height="30" as="geometry"/>
                </mxCell>
                <mxCell id="73" value="&lt;b style=&quot;&quot;&gt;&lt;font style=&quot;font-size: 128px;&quot;&gt;LEARNING MANAGEMENT SYSTEM&lt;/font&gt;&lt;/b&gt;" style="text;html=1;strokeColor=none;fillColor=none;align=center;verticalAlign=middle;whiteSpace=wrap;rounded=0;fontFamily=Times New Roman;fontSize=27;fontColor=#FFFFFF;labelBackgroundColor=#514b58;" vertex="1" parent="1">
                    <mxGeometry x="-1360" y="-1250" width="1950" height="320" as="geometry"/>
                </mxCell>
                <mxCell id="83" value="" style="edgeStyle=none;shape=connector;rounded=1;html=1;entryX=-0.01;entryY=0.477;entryDx=0;entryDy=0;labelBackgroundColor=default;strokeColor=default;strokeWidth=6;fontFamily=Times New Roman;fontSize=46;fontColor=default;endArrow=none;entryPerimeter=0;" edge="1" parent="1" source="55" target="82">
                    <mxGeometry relative="1" as="geometry">
                        <mxPoint x="1609.1863112777928" y="311.8821993035094" as="sourcePoint"/>
                        <mxPoint x="2017.5" y="250.63000000000056" as="targetPoint"/>
                        <Array as="points"/>
                    </mxGeometry>
                </mxCell>
                <mxCell id="82" value="Dashboard" style="text;html=1;align=center;verticalAlign=middle;resizable=0;points=[];autosize=1;strokeColor=none;fillColor=none;fontSize=28;fontFamily=Times New Roman;fontColor=default;" vertex="1" parent="1">
                    <mxGeometry x="1680" y="287.5" width="140" height="50" as="geometry"/>
                </mxCell>
                <mxCell id="87" style="edgeStyle=none;shape=connector;rounded=1;html=1;entryX=1;entryY=1;entryDx=0;entryDy=0;labelBackgroundColor=default;strokeColor=default;strokeWidth=6;fontFamily=Times New Roman;fontSize=28;fontColor=default;endArrow=classic;exitX=0;exitY=0.25;exitDx=0;exitDy=0;exitPerimeter=0;" edge="1" parent="1" source="86">
                    <mxGeometry relative="1" as="geometry">
                        <mxPoint x="2960" y="690" as="sourcePoint"/>
                        <mxPoint x="2266" y="230.6199999999999" as="targetPoint"/>
                        <Array as="points">
                            <mxPoint x="2730" y="680"/>
                            <mxPoint x="2440" y="650"/>
                            <mxPoint x="2266" y="470"/>
                        </Array>
                    </mxGeometry>
                </mxCell>
                <mxCell id="86" value="&lt;font size=&quot;1&quot; color=&quot;#000000&quot;&gt;&lt;b style=&quot;font-size: 26px;&quot;&gt;RETURNING BACK TO HOME PAGE&lt;/b&gt;&lt;/font&gt;" style="shape=or;whiteSpace=wrap;html=1;labelBackgroundColor=none;strokeColor=#56517e;fontFamily=Times New Roman;fontSize=19;fillColor=#d0cee2;align=left;" vertex="1" parent="1">
                    <mxGeometry x="2860" y="620" width="330" height="260" as="geometry"/>
                </mxCell>
                <mxCell id="217" style="edgeStyle=none;shape=connector;rounded=1;html=1;entryX=0.25;entryY=0;entryDx=0;entryDy=0;labelBackgroundColor=default;strokeColor=default;strokeWidth=6;fontFamily=Times New Roman;fontSize=24;fontColor=#1a17e8;endArrow=classic;" edge="1" parent="1" source="88" target="113">
                    <mxGeometry relative="1" as="geometry"/>
                </mxCell>
                <mxCell id="218" style="edgeStyle=none;shape=connector;rounded=1;html=1;entryX=0.25;entryY=0;entryDx=0;entryDy=0;labelBackgroundColor=default;strokeColor=default;strokeWidth=6;fontFamily=Times New Roman;fontSize=24;fontColor=#1a17e8;endArrow=classic;" edge="1" parent="1" source="88" target="102">
                    <mxGeometry relative="1" as="geometry"/>
                </mxCell>
                <mxCell id="219" style="edgeStyle=none;shape=connector;rounded=1;html=1;entryX=0;entryY=0.25;entryDx=0;entryDy=0;labelBackgroundColor=default;strokeColor=default;strokeWidth=6;fontFamily=Times New Roman;fontSize=24;fontColor=#1a17e8;endArrow=classic;" edge="1" parent="1" source="88" target="101">
                    <mxGeometry relative="1" as="geometry"/>
                </mxCell>
                <mxCell id="220" style="edgeStyle=none;shape=connector;rounded=1;html=1;labelBackgroundColor=default;strokeColor=default;strokeWidth=6;fontFamily=Times New Roman;fontSize=24;fontColor=#1a17e8;endArrow=classic;entryX=0;entryY=0.5;entryDx=0;entryDy=0;" edge="1" parent="1" source="88" target="99">
                    <mxGeometry relative="1" as="geometry"/>
                </mxCell>
                <mxCell id="221" style="edgeStyle=none;shape=connector;rounded=1;html=1;entryX=0;entryY=0.5;entryDx=0;entryDy=0;labelBackgroundColor=default;strokeColor=default;strokeWidth=6;fontFamily=Times New Roman;fontSize=24;fontColor=#1a17e8;endArrow=classic;" edge="1" parent="1" source="88" target="98">
                    <mxGeometry relative="1" as="geometry"/>
                </mxCell>
                <mxCell id="223" style="edgeStyle=none;shape=connector;rounded=1;html=1;entryX=0.25;entryY=1;entryDx=0;entryDy=0;labelBackgroundColor=default;strokeColor=default;strokeWidth=6;fontFamily=Times New Roman;fontSize=24;fontColor=#1a17e8;endArrow=classic;" edge="1" parent="1" source="88" target="97">
                    <mxGeometry relative="1" as="geometry"/>
                </mxCell>
                <mxCell id="88" value="&lt;font color=&quot;#000000&quot;&gt;&lt;span style=&quot;font-size: 30px;&quot;&gt;&lt;b&gt;For Student: &lt;br&gt;Where&lt;br&gt;&amp;nbsp;do you wnat to&lt;br&gt;navigate.&lt;/b&gt;&lt;/span&gt;&lt;/font&gt;" style="rhombus;whiteSpace=wrap;html=1;labelBackgroundColor=none;strokeColor=#56517e;fontFamily=Times New Roman;fontSize=19;fillColor=#d0cee2;" vertex="1" parent="1">
                    <mxGeometry x="2570" y="-57.010000000000005" width="320" height="267.01" as="geometry"/>
                </mxCell>
                <mxCell id="213" style="edgeStyle=none;shape=connector;rounded=1;html=1;entryX=0.5;entryY=1;entryDx=0;entryDy=0;labelBackgroundColor=default;strokeColor=default;strokeWidth=6;fontFamily=Times New Roman;fontSize=24;fontColor=#1a17e8;endArrow=classic;" edge="1" parent="1" source="90" target="107">
                    <mxGeometry relative="1" as="geometry"/>
                </mxCell>
                <mxCell id="214" style="edgeStyle=none;shape=connector;rounded=1;html=1;entryX=0.5;entryY=1;entryDx=0;entryDy=0;labelBackgroundColor=default;strokeColor=default;strokeWidth=6;fontFamily=Times New Roman;fontSize=24;fontColor=#1a17e8;endArrow=classic;" edge="1" parent="1" source="90" target="109">
                    <mxGeometry relative="1" as="geometry"/>
                </mxCell>
                <mxCell id="215" style="edgeStyle=none;shape=connector;rounded=1;html=1;entryX=0.5;entryY=1;entryDx=0;entryDy=0;labelBackgroundColor=default;strokeColor=default;strokeWidth=6;fontFamily=Times New Roman;fontSize=24;fontColor=#1a17e8;endArrow=classic;" edge="1" parent="1" source="90" target="106">
                    <mxGeometry relative="1" as="geometry"/>
                </mxCell>
                <mxCell id="90" value="&lt;font color=&quot;#000000&quot;&gt;&lt;span style=&quot;font-size: 30px;&quot;&gt;&lt;b&gt;For Teacher: &lt;br&gt;Where&lt;br&gt;&amp;nbsp;do you wnat to&lt;br&gt;navigate.&lt;/b&gt;&lt;/span&gt;&lt;/font&gt;" style="rhombus;whiteSpace=wrap;html=1;labelBackgroundColor=none;strokeColor=#56517e;fontFamily=Times New Roman;fontSize=19;fillColor=#d0cee2;" vertex="1" parent="1">
                    <mxGeometry x="2017" y="-600" width="320" height="267.01" as="geometry"/>
                </mxCell>
                <mxCell id="94" style="edgeStyle=none;shape=connector;rounded=1;html=1;entryX=0.5;entryY=1;entryDx=0;entryDy=0;labelBackgroundColor=default;strokeColor=default;strokeWidth=6;fontFamily=Times New Roman;fontSize=30;fontColor=default;endArrow=classic;" edge="1" parent="1" source="92" target="55">
                    <mxGeometry relative="1" as="geometry"/>
                </mxCell>
                <mxCell id="92" value="&lt;div style=&quot;&quot;&gt;&lt;font color=&quot;#000000&quot;&gt;&lt;span style=&quot;font-size: 19px;&quot;&gt;&lt;b&gt;Sign Up: ID code/Number Student Email(example@wmsu.edu.ph) and password.&lt;/b&gt;&lt;/span&gt;&lt;/font&gt;&lt;/div&gt;" style="shape=parallelogram;perimeter=parallelogramPerimeter;whiteSpace=wrap;html=1;fixedSize=1;labelBackgroundColor=none;strokeColor=#56517e;fontFamily=Times New Roman;fontSize=26;fillColor=#d0cee2;align=center;" vertex="1" parent="1">
                    <mxGeometry x="1305" y="520" width="340" height="120" as="geometry"/>
                </mxCell>
                <mxCell id="97" value="&lt;div style=&quot;&quot;&gt;&lt;font color=&quot;#000000&quot;&gt;&lt;span style=&quot;font-size: 19px;&quot;&gt;&lt;b&gt;View Grades&lt;/b&gt;&lt;/span&gt;&lt;/font&gt;&lt;/div&gt;" style="shape=parallelogram;perimeter=parallelogramPerimeter;whiteSpace=wrap;html=1;fixedSize=1;labelBackgroundColor=none;strokeColor=#56517e;fontFamily=Times New Roman;fontSize=26;fillColor=#d0cee2;align=center;" vertex="1" parent="1">
                    <mxGeometry x="2855" y="-400" width="340" height="120" as="geometry"/>
                </mxCell>
                <mxCell id="98" value="&lt;div style=&quot;&quot;&gt;&lt;font color=&quot;#000000&quot;&gt;&lt;span style=&quot;font-size: 19px;&quot;&gt;&lt;b&gt;Group Forum&lt;/b&gt;&lt;/span&gt;&lt;/font&gt;&lt;/div&gt;" style="shape=parallelogram;perimeter=parallelogramPerimeter;whiteSpace=wrap;html=1;fixedSize=1;labelBackgroundColor=none;strokeColor=#56517e;fontFamily=Times New Roman;fontSize=26;fillColor=#d0cee2;align=center;" vertex="1" parent="1">
                    <mxGeometry x="3080" y="-210" width="340" height="120" as="geometry"/>
                </mxCell>
                <mxCell id="99" value="&lt;div style=&quot;&quot;&gt;&lt;font color=&quot;#000000&quot;&gt;&lt;span style=&quot;font-size: 19px;&quot;&gt;&lt;b&gt;View Courses&lt;/b&gt;&lt;/span&gt;&lt;/font&gt;&lt;/div&gt;" style="shape=parallelogram;perimeter=parallelogramPerimeter;whiteSpace=wrap;html=1;fixedSize=1;labelBackgroundColor=none;strokeColor=#56517e;fontFamily=Times New Roman;fontSize=26;fillColor=#d0cee2;align=center;" vertex="1" parent="1">
                    <mxGeometry x="3240" y="-40" width="340" height="120" as="geometry"/>
                </mxCell>
                <mxCell id="101" value="&lt;div style=&quot;&quot;&gt;&lt;font color=&quot;#000000&quot;&gt;&lt;span style=&quot;font-size: 19px;&quot;&gt;&lt;b&gt;Navigate through Messages&lt;/b&gt;&lt;/span&gt;&lt;/font&gt;&lt;/div&gt;" style="shape=parallelogram;perimeter=parallelogramPerimeter;whiteSpace=wrap;html=1;fixedSize=1;labelBackgroundColor=none;strokeColor=#56517e;fontFamily=Times New Roman;fontSize=26;fillColor=#d0cee2;align=center;" vertex="1" parent="1">
                    <mxGeometry x="3110" y="120" width="340" height="120" as="geometry"/>
                </mxCell>
                <mxCell id="102" value="&lt;div style=&quot;&quot;&gt;&lt;font color=&quot;#000000&quot;&gt;&lt;span style=&quot;font-size: 19px;&quot;&gt;&lt;b&gt;Navigate in Notification&lt;/b&gt;&lt;/span&gt;&lt;/font&gt;&lt;/div&gt;" style="shape=parallelogram;perimeter=parallelogramPerimeter;whiteSpace=wrap;html=1;fixedSize=1;labelBackgroundColor=none;strokeColor=#56517e;fontFamily=Times New Roman;fontSize=26;fillColor=#d0cee2;align=center;" vertex="1" parent="1">
                    <mxGeometry x="2980" y="282.5" width="340" height="120" as="geometry"/>
                </mxCell>
                <mxCell id="105" style="edgeStyle=none;shape=connector;rounded=1;html=1;labelBackgroundColor=default;strokeColor=default;strokeWidth=6;fontFamily=Times New Roman;fontSize=30;fontColor=default;endArrow=classic;" edge="1" parent="1" source="103">
                    <mxGeometry relative="1" as="geometry">
                        <mxPoint x="1920" y="-90" as="targetPoint"/>
                        <Array as="points">
                            <mxPoint x="1920" y="-480"/>
                        </Array>
                    </mxGeometry>
                </mxCell>
                <mxCell id="103" value="&lt;font size=&quot;1&quot; color=&quot;#000000&quot;&gt;&lt;b style=&quot;font-size: 26px;&quot;&gt;RETURNING BACK TO HOME PAGE&lt;/b&gt;&lt;/font&gt;" style="shape=or;whiteSpace=wrap;html=1;labelBackgroundColor=none;strokeColor=#56517e;fontFamily=Times New Roman;fontSize=19;fillColor=#d0cee2;align=left;" vertex="1" parent="1">
                    <mxGeometry x="1441" y="-608" width="330" height="260" as="geometry"/>
                </mxCell>
                <mxCell id="267" value="" style="edgeStyle=none;shape=connector;rounded=1;html=1;labelBackgroundColor=default;strokeColor=default;strokeWidth=6;fontFamily=Times New Roman;fontSize=50;fontColor=#1a17e8;endArrow=classic;" edge="1" parent="1" source="106" target="266">
                    <mxGeometry relative="1" as="geometry"/>
                </mxCell>
                <mxCell id="106" value="&lt;div style=&quot;&quot;&gt;&lt;font color=&quot;#000000&quot;&gt;&lt;span style=&quot;font-size: 19px;&quot;&gt;&lt;b&gt;Navigate Through Courses&lt;/b&gt;&lt;/span&gt;&lt;/font&gt;&lt;/div&gt;" style="shape=parallelogram;perimeter=parallelogramPerimeter;whiteSpace=wrap;html=1;fixedSize=1;labelBackgroundColor=none;strokeColor=#56517e;fontFamily=Times New Roman;fontSize=26;fillColor=#d0cee2;align=center;" vertex="1" parent="1">
                    <mxGeometry x="1710" y="-1100" width="340" height="120" as="geometry"/>
                </mxCell>
                <mxCell id="197" style="edgeStyle=none;shape=connector;rounded=1;html=1;entryX=0.5;entryY=1;entryDx=0;entryDy=0;labelBackgroundColor=default;strokeColor=default;strokeWidth=6;fontFamily=Times New Roman;fontSize=24;fontColor=#1a17e8;endArrow=classic;" edge="1" parent="1" source="107" target="196">
                    <mxGeometry relative="1" as="geometry"/>
                </mxCell>
                <mxCell id="107" value="&lt;div style=&quot;&quot;&gt;&lt;font color=&quot;#000000&quot;&gt;&lt;span style=&quot;font-size: 19px;&quot;&gt;&lt;b&gt;View Class Program &amp;amp; Section&lt;/b&gt;&lt;/span&gt;&lt;/font&gt;&lt;/div&gt;&lt;div style=&quot;&quot;&gt;&lt;font color=&quot;#000000&quot;&gt;&lt;span style=&quot;font-size: 19px;&quot;&gt;&lt;b&gt;(e.g BSIT - 2A, BSCS -1A, BSIT - 2C)&lt;/b&gt;&lt;/span&gt;&lt;/font&gt;&lt;/div&gt;" style="shape=parallelogram;perimeter=parallelogramPerimeter;whiteSpace=wrap;html=1;fixedSize=1;labelBackgroundColor=none;strokeColor=#56517e;fontFamily=Times New Roman;fontSize=26;fillColor=#d0cee2;align=center;" vertex="1" parent="1">
                    <mxGeometry x="2260" y="-1100" width="340" height="120" as="geometry"/>
                </mxCell>
                <mxCell id="234" style="edgeStyle=none;shape=connector;rounded=1;html=1;labelBackgroundColor=default;strokeColor=default;strokeWidth=6;fontFamily=Times New Roman;fontSize=50;fontColor=#1a17e8;endArrow=classic;" edge="1" parent="1" source="109" target="233">
                    <mxGeometry relative="1" as="geometry"/>
                </mxCell>
                <mxCell id="109" value="&lt;div style=&quot;&quot;&gt;&lt;font color=&quot;#000000&quot;&gt;&lt;span style=&quot;font-size: 19px;&quot;&gt;&lt;b&gt;View Notification&lt;/b&gt;&lt;/span&gt;&lt;/font&gt;&lt;/div&gt;" style="shape=parallelogram;perimeter=parallelogramPerimeter;whiteSpace=wrap;html=1;fixedSize=1;labelBackgroundColor=none;strokeColor=#56517e;fontFamily=Times New Roman;fontSize=26;fillColor=#d0cee2;align=center;" vertex="1" parent="1">
                    <mxGeometry x="2460" y="-890" width="340" height="120" as="geometry"/>
                </mxCell>
                <mxCell id="113" value="&lt;div style=&quot;&quot;&gt;&lt;font color=&quot;#000000&quot;&gt;&lt;span style=&quot;font-size: 19px;&quot;&gt;&lt;b&gt;Navigate in Settings&lt;/b&gt;&lt;/span&gt;&lt;/font&gt;&lt;/div&gt;" style="shape=parallelogram;perimeter=parallelogramPerimeter;whiteSpace=wrap;html=1;fixedSize=1;labelBackgroundColor=none;strokeColor=#56517e;fontFamily=Times New Roman;fontSize=26;fillColor=#d0cee2;align=center;" vertex="1" parent="1">
                    <mxGeometry x="2855" y="445" width="340" height="120" as="geometry"/>
                </mxCell>
                <mxCell id="159" style="edgeStyle=none;shape=connector;rounded=1;html=1;labelBackgroundColor=default;strokeColor=default;strokeWidth=6;fontFamily=Times New Roman;fontSize=30;fontColor=default;endArrow=classic;" edge="1" parent="1" source="115" target="157">
                    <mxGeometry relative="1" as="geometry"/>
                </mxCell>
                <mxCell id="115" value="&lt;font size=&quot;1&quot; face=&quot;Times New Roman&quot; color=&quot;#000000&quot;&gt;&lt;b style=&quot;font-size: 59px;&quot;&gt;START&lt;/b&gt;&lt;/font&gt;" style="ellipse;whiteSpace=wrap;html=1;fillColor=#d0cee2;strokeColor=#56517e;labelBackgroundColor=none;" vertex="1" parent="1">
                    <mxGeometry x="1748.75" y="2305" width="390" height="275" as="geometry"/>
                </mxCell>
                <mxCell id="163" style="edgeStyle=none;shape=connector;rounded=1;html=1;labelBackgroundColor=default;strokeColor=default;strokeWidth=6;fontFamily=Times New Roman;fontSize=30;fontColor=default;endArrow=classic;startArrow=none;" edge="1" parent="1" source="165" target="161">
                    <mxGeometry relative="1" as="geometry"/>
                </mxCell>
                <mxCell id="194" style="edgeStyle=none;shape=connector;rounded=1;html=1;entryX=0.5;entryY=1;entryDx=0;entryDy=0;labelBackgroundColor=default;strokeColor=default;strokeWidth=6;fontFamily=Times New Roman;fontSize=128;fontColor=#1a17e8;endArrow=classic;exitX=0.5;exitY=0;exitDx=0;exitDy=0;" edge="1" parent="1" source="118" target="135">
                    <mxGeometry relative="1" as="geometry">
                        <Array as="points">
                            <mxPoint x="2000" y="1545"/>
                        </Array>
                    </mxGeometry>
                </mxCell>
                <mxCell id="118" value="&lt;font size=&quot;1&quot; color=&quot;#000000&quot;&gt;&lt;b style=&quot;font-size: 24px; background-color: rgb(255, 255, 255);&quot;&gt;Checking Credentials if Matched or unmatched in the Database.&lt;/b&gt;&lt;/font&gt;" style="rhombus;whiteSpace=wrap;html=1;labelBackgroundColor=none;strokeColor=#56517e;fontFamily=Times New Roman;fontSize=19;fillColor=#d0cee2;" vertex="1" parent="1">
                    <mxGeometry x="1710" y="1545" width="270" height="205" as="geometry"/>
                </mxCell>
                <mxCell id="149" style="edgeStyle=none;shape=connector;rounded=1;html=1;labelBackgroundColor=default;strokeColor=default;strokeWidth=6;fontFamily=Times New Roman;fontSize=30;fontColor=default;endArrow=classic;startArrow=none;entryX=0.447;entryY=1.001;entryDx=0;entryDy=0;entryPerimeter=0;" edge="1" parent="1" source="135" target="24">
                    <mxGeometry relative="1" as="geometry">
                        <mxPoint x="2041" y="680" as="sourcePoint"/>
                    </mxGeometry>
                </mxCell>
                <mxCell id="152" style="edgeStyle=none;shape=connector;rounded=1;html=1;labelBackgroundColor=default;strokeColor=default;strokeWidth=6;fontFamily=Times New Roman;fontSize=30;fontColor=default;endArrow=classic;startArrow=none;" edge="1" parent="1" source="172">
                    <mxGeometry relative="1" as="geometry">
                        <mxPoint x="2110" y="230" as="targetPoint"/>
                    </mxGeometry>
                </mxCell>
                <mxCell id="139" value="&lt;font size=&quot;1&quot; color=&quot;#000000&quot;&gt;&lt;b style=&quot;font-size: 26px;&quot;&gt;Proceed to &lt;br&gt;Dashboard or &lt;br&gt;Relogin?&lt;/b&gt;&lt;/font&gt;" style="rhombus;whiteSpace=wrap;html=1;labelBackgroundColor=none;strokeColor=#56517e;fontFamily=Times New Roman;fontSize=19;fillColor=#d0cee2;" vertex="1" parent="1">
                    <mxGeometry x="1345" y="1055" width="270" height="205" as="geometry"/>
                </mxCell>
                <mxCell id="181" style="edgeStyle=none;shape=connector;rounded=1;html=1;entryX=0.25;entryY=1;entryDx=0;entryDy=0;labelBackgroundColor=default;strokeColor=default;strokeWidth=6;fontFamily=Times New Roman;fontSize=30;fontColor=default;endArrow=classic;" edge="1" parent="1" source="141" target="157">
                    <mxGeometry relative="1" as="geometry">
                        <mxPoint x="1380" y="2375" as="sourcePoint"/>
                        <Array as="points">
                            <mxPoint x="1480" y="2255"/>
                            <mxPoint x="1857" y="2255"/>
                        </Array>
                    </mxGeometry>
                </mxCell>
                <mxCell id="182" style="edgeStyle=none;shape=connector;rounded=1;html=1;labelBackgroundColor=default;strokeColor=default;strokeWidth=6;fontFamily=Times New Roman;fontSize=30;fontColor=default;endArrow=classic;exitX=0.44;exitY=-0.004;exitDx=0;exitDy=0;exitPerimeter=0;" edge="1" parent="1" source="141" target="139">
                    <mxGeometry relative="1" as="geometry"/>
                </mxCell>
                <mxCell id="141" value="&lt;font size=&quot;1&quot; color=&quot;#000000&quot;&gt;&lt;b style=&quot;font-size: 26px;&quot;&gt;Proceeding to Login Page&lt;/b&gt;&lt;/font&gt;" style="shape=or;whiteSpace=wrap;html=1;labelBackgroundColor=none;strokeColor=#56517e;fontFamily=Times New Roman;fontSize=19;fillColor=#d0cee2;align=left;" vertex="1" parent="1">
                    <mxGeometry x="1375" y="1835" width="210" height="140" as="geometry"/>
                </mxCell>
                <mxCell id="135" value="&lt;font style=&quot;font-size: 28px;&quot; color=&quot;#ffffff&quot;&gt;Matched&lt;/font&gt;" style="text;html=1;align=center;verticalAlign=middle;whiteSpace=wrap;rounded=0;labelBackgroundColor=none;fontFamily=Times New Roman;fontSize=21;" vertex="1" parent="1">
                    <mxGeometry x="1950" y="1275" width="100" height="30" as="geometry"/>
                </mxCell>
                <mxCell id="160" style="edgeStyle=none;shape=connector;rounded=1;html=1;entryX=0.5;entryY=1;entryDx=0;entryDy=0;labelBackgroundColor=default;strokeColor=default;strokeWidth=6;fontFamily=Times New Roman;fontSize=30;fontColor=default;endArrow=classic;" edge="1" parent="1" source="157" target="118">
                    <mxGeometry relative="1" as="geometry">
                        <Array as="points">
                            <mxPoint x="1840" y="1975"/>
                        </Array>
                    </mxGeometry>
                </mxCell>
                <mxCell id="157" value="&lt;div style=&quot;&quot;&gt;&lt;b style=&quot;color: rgb(0, 0, 0); background-color: initial;&quot;&gt;Sign In: Input Teacher's&lt;br&gt;Email or Teacher's ID and&amp;nbsp;&lt;br&gt;Password.&lt;/b&gt;&lt;/div&gt;" style="shape=parallelogram;perimeter=parallelogramPerimeter;whiteSpace=wrap;html=1;fixedSize=1;labelBackgroundColor=none;strokeColor=#56517e;fontFamily=Times New Roman;fontSize=26;fillColor=#d0cee2;align=center;" vertex="1" parent="1">
                    <mxGeometry x="1780" y="2065" width="307.5" height="120" as="geometry"/>
                </mxCell>
                <mxCell id="175" style="edgeStyle=none;shape=connector;rounded=1;html=1;entryX=1;entryY=0.5;entryDx=0;entryDy=0;entryPerimeter=0;labelBackgroundColor=default;strokeColor=default;strokeWidth=6;fontFamily=Times New Roman;fontSize=30;fontColor=default;endArrow=classic;startArrow=none;" edge="1" parent="1" source="176" target="174">
                    <mxGeometry relative="1" as="geometry">
                        <Array as="points"/>
                    </mxGeometry>
                </mxCell>
                <mxCell id="178" style="edgeStyle=none;shape=connector;rounded=1;html=1;entryX=1;entryY=0.5;entryDx=0;entryDy=0;labelBackgroundColor=default;strokeColor=default;strokeWidth=6;fontFamily=Times New Roman;fontSize=30;fontColor=default;endArrow=classic;" edge="1" parent="1" source="161" target="176">
                    <mxGeometry relative="1" as="geometry">
                        <Array as="points">
                            <mxPoint x="1298" y="1445"/>
                        </Array>
                    </mxGeometry>
                </mxCell>
                <mxCell id="161" value="&lt;font size=&quot;1&quot; color=&quot;#000000&quot;&gt;&lt;b style=&quot;font-size: 25px;&quot;&gt;Relogin or Sign Up?&lt;/b&gt;&lt;/font&gt;" style="rhombus;whiteSpace=wrap;html=1;labelBackgroundColor=none;strokeColor=#56517e;fontFamily=Times New Roman;fontSize=19;fillColor=#d0cee2;" vertex="1" parent="1">
                    <mxGeometry x="1163" y="1550" width="270" height="205" as="geometry"/>
                </mxCell>
                <mxCell id="166" value="" style="edgeStyle=none;shape=connector;rounded=1;html=1;labelBackgroundColor=default;strokeColor=default;strokeWidth=6;fontFamily=Times New Roman;fontSize=30;fontColor=default;endArrow=none;entryX=1;entryY=0.5;entryDx=0;entryDy=0;" edge="1" parent="1" source="118" target="165">
                    <mxGeometry relative="1" as="geometry">
                        <mxPoint x="1710" y="1647.5" as="sourcePoint"/>
                        <mxPoint x="1550" y="1648" as="targetPoint"/>
                    </mxGeometry>
                </mxCell>
                <mxCell id="165" value="&lt;font style=&quot;font-size: 28px;&quot; color=&quot;#ffffff&quot;&gt;Unmatched&lt;/font&gt;" style="text;html=1;align=center;verticalAlign=middle;whiteSpace=wrap;rounded=0;labelBackgroundColor=none;fontFamily=Times New Roman;fontSize=21;" vertex="1" parent="1">
                    <mxGeometry x="1515" y="1633" width="130" height="30" as="geometry"/>
                </mxCell>
                <mxCell id="170" value="" style="edgeStyle=none;shape=connector;rounded=1;html=1;entryX=0;entryY=0.5;entryDx=0;entryDy=0;labelBackgroundColor=default;strokeColor=default;strokeWidth=6;fontFamily=Times New Roman;fontSize=30;fontColor=default;endArrow=none;exitX=0.5;exitY=1;exitDx=0;exitDy=0;" edge="1" parent="1" source="161" target="169">
                    <mxGeometry relative="1" as="geometry">
                        <mxPoint x="1115" y="1748.999999999999" as="sourcePoint"/>
                        <mxPoint x="1800" y="2134" as="targetPoint"/>
                        <Array as="points">
                            <mxPoint x="1300" y="2130"/>
                        </Array>
                    </mxGeometry>
                </mxCell>
                <mxCell id="171" style="edgeStyle=none;shape=connector;rounded=1;html=1;labelBackgroundColor=default;strokeColor=default;strokeWidth=6;fontFamily=Times New Roman;fontSize=30;fontColor=default;endArrow=classic;" edge="1" parent="1" source="169" target="157">
                    <mxGeometry relative="1" as="geometry"/>
                </mxCell>
                <mxCell id="169" value="&lt;font style=&quot;font-size: 28px;&quot; color=&quot;#ffffff&quot;&gt;Relogin&lt;/font&gt;" style="text;html=1;align=center;verticalAlign=middle;whiteSpace=wrap;rounded=0;labelBackgroundColor=none;fontFamily=Times New Roman;fontSize=21;" vertex="1" parent="1">
                    <mxGeometry x="1500" y="2115" width="130" height="30" as="geometry"/>
                </mxCell>
                <mxCell id="173" value="" style="edgeStyle=none;shape=connector;rounded=1;html=1;labelBackgroundColor=default;strokeColor=default;strokeWidth=6;fontFamily=Times New Roman;fontSize=30;fontColor=default;endArrow=none;entryX=0.5;entryY=1;entryDx=0;entryDy=0;exitX=1;exitY=0.5;exitDx=0;exitDy=0;" edge="1" parent="1" source="139" target="172">
                    <mxGeometry relative="1" as="geometry">
                        <mxPoint x="2105.8762086491715" y="1305.6652695299272" as="sourcePoint"/>
                        <mxPoint x="2105" y="1055" as="targetPoint"/>
                        <Array as="points">
                            <mxPoint x="2105" y="1155"/>
                        </Array>
                    </mxGeometry>
                </mxCell>
                <mxCell id="172" value="&lt;font style=&quot;font-size: 28px;&quot; color=&quot;#ffffff&quot;&gt;Dashboard&lt;/font&gt;" style="text;html=1;align=center;verticalAlign=middle;whiteSpace=wrap;rounded=0;labelBackgroundColor=none;fontFamily=Times New Roman;fontSize=21;" vertex="1" parent="1">
                    <mxGeometry x="2060" y="750" width="100" height="30" as="geometry"/>
                </mxCell>
                <mxCell id="184" style="edgeStyle=none;shape=connector;rounded=1;html=1;entryX=0.5;entryY=0;entryDx=0;entryDy=0;labelBackgroundColor=default;strokeColor=default;strokeWidth=6;fontFamily=Times New Roman;fontSize=30;fontColor=default;endArrow=classic;" edge="1" parent="1" source="174" target="179">
                    <mxGeometry relative="1" as="geometry"/>
                </mxCell>
                <mxCell id="174" value="&lt;font color=&quot;#000000&quot;&gt;&lt;b style=&quot;font-size: 18px;&quot;&gt;Proceeding to Register your email, password and Student code or ID number in the Systerm.&lt;/b&gt;&lt;/font&gt;" style="shape=or;whiteSpace=wrap;html=1;labelBackgroundColor=none;strokeColor=#56517e;fontFamily=Times New Roman;fontSize=19;fillColor=#d0cee2;align=left;" vertex="1" parent="1">
                    <mxGeometry x="735" y="1375" width="210" height="140" as="geometry"/>
                </mxCell>
                <mxCell id="176" value="&lt;font color=&quot;#ffffff&quot;&gt;&lt;span style=&quot;font-size: 28px;&quot;&gt;Sign Up&lt;/span&gt;&lt;/font&gt;" style="text;html=1;align=center;verticalAlign=middle;whiteSpace=wrap;rounded=0;labelBackgroundColor=none;fontFamily=Times New Roman;fontSize=21;" vertex="1" parent="1">
                    <mxGeometry x="1090" y="1430" width="130" height="30" as="geometry"/>
                </mxCell>
                <mxCell id="185" style="edgeStyle=none;shape=connector;rounded=1;html=1;entryX=0.548;entryY=0.143;entryDx=0;entryDy=0;entryPerimeter=0;labelBackgroundColor=default;strokeColor=default;strokeWidth=6;fontFamily=Times New Roman;fontSize=30;fontColor=default;endArrow=classic;" edge="1" parent="1" source="179" target="180">
                    <mxGeometry relative="1" as="geometry"/>
                </mxCell>
                <mxCell id="179" value="&lt;div style=&quot;&quot;&gt;&lt;font style=&quot;font-size: 19px;&quot; color=&quot;#000000&quot;&gt;&lt;b style=&quot;&quot;&gt;&lt;span style=&quot;white-space: pre;&quot;&gt;&#9;&lt;/span&gt;Sign Up(Personal Information): First name, Last name, Middle name (opional), Suffix(optional), Age, Course and Section.&lt;/b&gt;&lt;/font&gt;&lt;/div&gt;" style="shape=parallelogram;perimeter=parallelogramPerimeter;whiteSpace=wrap;html=1;fixedSize=1;labelBackgroundColor=none;strokeColor=#56517e;fontFamily=Times New Roman;fontSize=26;fillColor=#d0cee2;align=center;" vertex="1" parent="1">
                    <mxGeometry x="670" y="1645" width="340" height="120" as="geometry"/>
                </mxCell>
                <mxCell id="186" style="edgeStyle=none;shape=connector;rounded=1;html=1;entryX=0.5;entryY=1;entryDx=0;entryDy=0;labelBackgroundColor=default;strokeColor=default;strokeWidth=6;fontFamily=Times New Roman;fontSize=30;fontColor=default;endArrow=classic;" edge="1" parent="1" source="180" target="183">
                    <mxGeometry relative="1" as="geometry">
                        <Array as="points">
                            <mxPoint x="360" y="1995"/>
                        </Array>
                    </mxGeometry>
                </mxCell>
                <mxCell id="180" value="&lt;font color=&quot;#000000&quot;&gt;&lt;b style=&quot;font-size: 17px;&quot;&gt;Proceeding to Registering Personal Security information in the System.&lt;/b&gt;&lt;/font&gt;" style="shape=or;whiteSpace=wrap;html=1;labelBackgroundColor=none;strokeColor=#56517e;fontFamily=Times New Roman;fontSize=19;fillColor=#d0cee2;align=left;" vertex="1" parent="1">
                    <mxGeometry x="725" y="1925" width="210" height="140" as="geometry"/>
                </mxCell>
                <mxCell id="187" style="edgeStyle=none;shape=connector;rounded=1;html=1;entryX=0;entryY=0.5;entryDx=0;entryDy=0;labelBackgroundColor=default;strokeColor=default;strokeWidth=6;fontFamily=Times New Roman;fontSize=30;fontColor=default;endArrow=classic;" edge="1" parent="1" source="183" target="139">
                    <mxGeometry relative="1" as="geometry">
                        <Array as="points">
                            <mxPoint x="360" y="1158"/>
                        </Array>
                    </mxGeometry>
                </mxCell>
                <mxCell id="183" value="&lt;div style=&quot;&quot;&gt;&lt;font color=&quot;#000000&quot;&gt;&lt;span style=&quot;font-size: 19px;&quot;&gt;&lt;b&gt;Sign Up: ID code/Number Student Email(example@wmsu.edu.ph) and password.&lt;/b&gt;&lt;/span&gt;&lt;/font&gt;&lt;/div&gt;" style="shape=parallelogram;perimeter=parallelogramPerimeter;whiteSpace=wrap;html=1;fixedSize=1;labelBackgroundColor=none;strokeColor=#56517e;fontFamily=Times New Roman;fontSize=26;fillColor=#d0cee2;align=center;" vertex="1" parent="1">
                    <mxGeometry x="190" y="1655" width="340" height="120" as="geometry"/>
                </mxCell>
                <mxCell id="188" value="&lt;b style=&quot;&quot;&gt;&lt;font color=&quot;#1a17e8&quot; style=&quot;font-size: 60px; background-color: rgb(255, 255, 255);&quot;&gt;PROFESSOR FLOWCHART&lt;/font&gt;&lt;/b&gt;" style="text;html=1;strokeColor=none;fillColor=none;align=center;verticalAlign=middle;whiteSpace=wrap;rounded=0;fontFamily=Times New Roman;fontSize=27;fontColor=#FFFFFF;labelBackgroundColor=#514b58;" vertex="1" parent="1">
                    <mxGeometry x="390" y="2250" width="600" height="180" as="geometry"/>
                </mxCell>
                <mxCell id="201" style="edgeStyle=none;shape=connector;rounded=1;html=1;entryX=0.5;entryY=1;entryDx=0;entryDy=0;labelBackgroundColor=default;strokeColor=default;strokeWidth=6;fontFamily=Times New Roman;fontSize=24;fontColor=#1a17e8;endArrow=classic;" edge="1" parent="1" source="196" target="200">
                    <mxGeometry relative="1" as="geometry"/>
                </mxCell>
                <mxCell id="196" value="&lt;font color=&quot;#000000&quot;&gt;&lt;span style=&quot;font-size: 24px;&quot;&gt;&lt;b&gt;Class that under your supervision.&lt;/b&gt;&lt;/span&gt;&lt;/font&gt;" style="rounded=0;whiteSpace=wrap;html=1;labelBackgroundColor=none;fontFamily=Times New Roman;fontSize=27;fillColor=#d0cee2;strokeColor=#56517e;align=center;" vertex="1" parent="1">
                    <mxGeometry x="2250" y="-1360" width="360" height="120" as="geometry"/>
                </mxCell>
                <mxCell id="198" value="&lt;font size=&quot;1&quot; face=&quot;Times New Roman&quot; color=&quot;#000000&quot;&gt;&lt;b style=&quot;font-size: 100px;&quot;&gt;END&lt;/b&gt;&lt;/font&gt;" style="ellipse;whiteSpace=wrap;html=1;fillColor=#d0cee2;strokeColor=#56517e;labelBackgroundColor=none;" vertex="1" parent="1">
                    <mxGeometry x="1677" y="-3310" width="1000" height="660" as="geometry"/>
                </mxCell>
                <mxCell id="202" style="edgeStyle=none;shape=connector;rounded=1;html=1;entryX=0;entryY=0.25;entryDx=0;entryDy=0;entryPerimeter=0;labelBackgroundColor=default;strokeColor=default;strokeWidth=6;fontFamily=Times New Roman;fontSize=24;fontColor=#1a17e8;endArrow=classic;startArrow=none;" edge="1" parent="1" source="204" target="103">
                    <mxGeometry relative="1" as="geometry">
                        <Array as="points">
                            <mxPoint x="1100" y="-1616"/>
                            <mxPoint x="1100" y="-543"/>
                        </Array>
                    </mxGeometry>
                </mxCell>
                <mxCell id="210" style="edgeStyle=none;shape=connector;rounded=1;html=1;labelBackgroundColor=default;strokeColor=default;strokeWidth=6;fontFamily=Times New Roman;fontSize=24;fontColor=#1a17e8;endArrow=classic;startArrow=none;" edge="1" parent="1" source="211" target="209">
                    <mxGeometry relative="1" as="geometry"/>
                </mxCell>
                <mxCell id="200" value="&lt;font color=&quot;#000000&quot;&gt;&lt;span style=&quot;font-size: 30px;&quot;&gt;&lt;b&gt;Check Students &lt;br&gt;under that class or back to home &lt;br&gt;or dashboard?&lt;/b&gt;&lt;/span&gt;&lt;/font&gt;" style="rhombus;whiteSpace=wrap;html=1;labelBackgroundColor=none;strokeColor=#56517e;fontFamily=Times New Roman;fontSize=19;fillColor=#d0cee2;" vertex="1" parent="1">
                    <mxGeometry x="2270" y="-1755" width="320" height="267.01" as="geometry"/>
                </mxCell>
                <mxCell id="206" value="" style="edgeStyle=none;shape=connector;rounded=1;html=1;entryX=1;entryY=0.5;entryDx=0;entryDy=0;labelBackgroundColor=default;strokeColor=default;strokeWidth=6;fontFamily=Times New Roman;fontSize=24;fontColor=#1a17e8;endArrow=none;" edge="1" parent="1" source="200" target="204">
                    <mxGeometry relative="1" as="geometry">
                        <mxPoint x="2270.930969813413" y="-1615.7181929691264" as="sourcePoint"/>
                        <mxPoint x="1441" y="-543" as="targetPoint"/>
                        <Array as="points"/>
                    </mxGeometry>
                </mxCell>
                <mxCell id="204" value="&lt;font style=&quot;font-size: 28px;&quot; color=&quot;#ffffff&quot;&gt;Go Back&lt;/font&gt;" style="text;html=1;align=center;verticalAlign=middle;whiteSpace=wrap;rounded=0;labelBackgroundColor=none;fontFamily=Times New Roman;fontSize=21;" vertex="1" parent="1">
                    <mxGeometry x="1150" y="-1631.5" width="130" height="30" as="geometry"/>
                </mxCell>
                <mxCell id="225" style="edgeStyle=none;shape=connector;rounded=1;html=1;entryX=0.5;entryY=1;entryDx=0;entryDy=0;labelBackgroundColor=default;strokeColor=default;strokeWidth=6;fontFamily=Times New Roman;fontSize=24;fontColor=#1a17e8;endArrow=classic;" edge="1" parent="1" source="209" target="224">
                    <mxGeometry relative="1" as="geometry"/>
                </mxCell>
                <mxCell id="209" value="&lt;font color=&quot;#000000&quot;&gt;&lt;span style=&quot;font-size: 24px;&quot;&gt;&lt;b&gt;Viewing Student inseide that class&lt;/b&gt;&lt;/span&gt;&lt;/font&gt;" style="rounded=0;whiteSpace=wrap;html=1;labelBackgroundColor=none;fontFamily=Times New Roman;fontSize=27;fillColor=#d0cee2;strokeColor=#56517e;align=center;" vertex="1" parent="1">
                    <mxGeometry x="2830" y="-1681.49" width="360" height="120" as="geometry"/>
                </mxCell>
                <mxCell id="212" value="" style="edgeStyle=none;shape=connector;rounded=1;html=1;labelBackgroundColor=default;strokeColor=default;strokeWidth=6;fontFamily=Times New Roman;fontSize=24;fontColor=#1a17e8;endArrow=none;" edge="1" parent="1" source="200" target="211">
                    <mxGeometry relative="1" as="geometry">
                        <mxPoint x="2589.9983469729586" y="-1621.4936207039054" as="sourcePoint"/>
                        <mxPoint x="2830" y="-1621.4915517241375" as="targetPoint"/>
                    </mxGeometry>
                </mxCell>
                <mxCell id="211" value="&lt;font style=&quot;font-size: 28px;&quot; color=&quot;#ffffff&quot;&gt;Check&lt;/font&gt;" style="text;html=1;align=center;verticalAlign=middle;whiteSpace=wrap;rounded=0;labelBackgroundColor=none;fontFamily=Times New Roman;fontSize=21;" vertex="1" parent="1">
                    <mxGeometry x="2640" y="-1636.49" width="100" height="30" as="geometry"/>
                </mxCell>
                <mxCell id="227" style="edgeStyle=none;shape=connector;rounded=1;html=1;entryX=0.5;entryY=1;entryDx=0;entryDy=0;labelBackgroundColor=default;strokeColor=default;strokeWidth=6;fontFamily=Times New Roman;fontSize=50;fontColor=#1a17e8;endArrow=classic;startArrow=none;" edge="1" parent="1" source="228" target="226">
                    <mxGeometry relative="1" as="geometry"/>
                </mxCell>
                <mxCell id="231" style="edgeStyle=none;shape=connector;rounded=1;html=1;entryX=0;entryY=0.5;entryDx=0;entryDy=0;labelBackgroundColor=default;strokeColor=default;strokeWidth=6;fontFamily=Times New Roman;fontSize=50;fontColor=#1a17e8;endArrow=classic;" edge="1" parent="1" source="224" target="230">
                    <mxGeometry relative="1" as="geometry"/>
                </mxCell>
                <mxCell id="224" value="&lt;font color=&quot;#000000&quot;&gt;&lt;span style=&quot;font-size: 30px;&quot;&gt;&lt;b&gt;View Student &lt;br&gt;Progress?&lt;/b&gt;&lt;/span&gt;&lt;/font&gt;" style="rhombus;whiteSpace=wrap;html=1;labelBackgroundColor=none;strokeColor=#56517e;fontFamily=Times New Roman;fontSize=19;fillColor=#d0cee2;" vertex="1" parent="1">
                    <mxGeometry x="2850" y="-2060" width="320" height="267.01" as="geometry"/>
                </mxCell>
                <mxCell id="226" value="&lt;font face=&quot;Times New Roman&quot; color=&quot;#000000&quot;&gt;&lt;span style=&quot;font-size: 50px;&quot;&gt;&lt;b&gt;END&lt;/b&gt;&lt;/span&gt;&lt;/font&gt;" style="ellipse;whiteSpace=wrap;html=1;fillColor=#d0cee2;strokeColor=#56517e;labelBackgroundColor=none;" vertex="1" parent="1">
                    <mxGeometry x="2880" y="-2360" width="260" height="130" as="geometry"/>
                </mxCell>
                <mxCell id="229" value="" style="edgeStyle=none;shape=connector;rounded=1;html=1;entryX=0.5;entryY=1;entryDx=0;entryDy=0;labelBackgroundColor=default;strokeColor=default;strokeWidth=6;fontFamily=Times New Roman;fontSize=50;fontColor=#1a17e8;endArrow=none;" edge="1" parent="1" source="224" target="228">
                    <mxGeometry relative="1" as="geometry">
                        <mxPoint x="3010" y="-2060" as="sourcePoint"/>
                        <mxPoint x="3010" y="-2210" as="targetPoint"/>
                    </mxGeometry>
                </mxCell>
                <mxCell id="228" value="&lt;font style=&quot;font-size: 28px;&quot; color=&quot;#ffffff&quot;&gt;No&lt;/font&gt;" style="text;html=1;align=center;verticalAlign=middle;whiteSpace=wrap;rounded=0;labelBackgroundColor=none;fontFamily=Times New Roman;fontSize=21;" vertex="1" parent="1">
                    <mxGeometry x="2960" y="-2155" width="100" height="30" as="geometry"/>
                </mxCell>
                <mxCell id="232" style="edgeStyle=none;shape=connector;rounded=1;html=1;entryX=1;entryY=0.5;entryDx=0;entryDy=0;labelBackgroundColor=default;strokeColor=default;strokeWidth=6;fontFamily=Times New Roman;fontSize=50;fontColor=#1a17e8;endArrow=classic;" edge="1" parent="1" source="230" target="226">
                    <mxGeometry relative="1" as="geometry">
                        <Array as="points">
                            <mxPoint x="3880" y="-1926"/>
                            <mxPoint x="3880" y="-2295"/>
                        </Array>
                    </mxGeometry>
                </mxCell>
                <mxCell id="230" value="&lt;font color=&quot;#000000&quot;&gt;&lt;span style=&quot;font-size: 24px;&quot;&gt;&lt;b&gt;Student's Progress&lt;/b&gt;&lt;/span&gt;&lt;/font&gt;" style="rounded=0;whiteSpace=wrap;html=1;labelBackgroundColor=none;fontFamily=Times New Roman;fontSize=27;fillColor=#d0cee2;strokeColor=#56517e;align=center;" vertex="1" parent="1">
                    <mxGeometry x="3370" y="-1986.49" width="360" height="120" as="geometry"/>
                </mxCell>
                <mxCell id="236" style="edgeStyle=none;shape=connector;rounded=1;html=1;labelBackgroundColor=default;strokeColor=default;strokeWidth=6;fontFamily=Times New Roman;fontSize=50;fontColor=#1a17e8;endArrow=classic;" edge="1" parent="1" source="233" target="235">
                    <mxGeometry relative="1" as="geometry"/>
                </mxCell>
                <mxCell id="233" value="&lt;font color=&quot;#000000&quot;&gt;&lt;span style=&quot;font-size: 24px;&quot;&gt;&lt;b&gt;Notification Cards&lt;/b&gt;&lt;/span&gt;&lt;/font&gt;" style="rounded=0;whiteSpace=wrap;html=1;labelBackgroundColor=none;fontFamily=Times New Roman;fontSize=27;fillColor=#d0cee2;strokeColor=#56517e;align=center;" vertex="1" parent="1">
                    <mxGeometry x="2970" y="-890" width="360" height="120" as="geometry"/>
                </mxCell>
                <mxCell id="238" style="edgeStyle=none;shape=connector;rounded=1;html=1;entryX=0;entryY=0.5;entryDx=0;entryDy=0;entryPerimeter=0;labelBackgroundColor=default;strokeColor=default;strokeWidth=6;fontFamily=Times New Roman;fontSize=50;fontColor=#1a17e8;endArrow=classic;startArrow=none;" edge="1" parent="1" source="240" target="237">
                    <mxGeometry relative="1" as="geometry">
                        <Array as="points">
                            <mxPoint x="3150" y="-1445"/>
                        </Array>
                    </mxGeometry>
                </mxCell>
                <mxCell id="249" style="edgeStyle=none;shape=connector;rounded=1;html=1;entryX=0;entryY=0.5;entryDx=0;entryDy=0;labelBackgroundColor=default;strokeColor=default;strokeWidth=6;fontFamily=Times New Roman;fontSize=50;fontColor=#1a17e8;endArrow=classic;" edge="1" parent="1" source="235" target="248">
                    <mxGeometry relative="1" as="geometry"/>
                </mxCell>
                <mxCell id="235" value="&lt;font color=&quot;#000000&quot;&gt;&lt;span style=&quot;font-size: 30px;&quot;&gt;&lt;b&gt;Read all or View&lt;br&gt;&amp;nbsp;the full description&lt;br&gt;of the notification&amp;nbsp;&lt;/b&gt;&lt;/span&gt;&lt;/font&gt;" style="rhombus;whiteSpace=wrap;html=1;labelBackgroundColor=none;strokeColor=#56517e;fontFamily=Times New Roman;fontSize=19;fillColor=#d0cee2;" vertex="1" parent="1">
                    <mxGeometry x="2990" y="-1290" width="320" height="267.01" as="geometry"/>
                </mxCell>
                <mxCell id="245" style="edgeStyle=none;shape=connector;rounded=1;html=1;entryX=0;entryY=0.5;entryDx=0;entryDy=0;labelBackgroundColor=default;strokeColor=default;strokeWidth=6;fontFamily=Times New Roman;fontSize=50;fontColor=#1a17e8;endArrow=classic;" edge="1" parent="1" source="237" target="243">
                    <mxGeometry relative="1" as="geometry"/>
                </mxCell>
                <mxCell id="237" value="&lt;font color=&quot;#000000&quot;&gt;&lt;span style=&quot;font-size: 26px;&quot;&gt;&lt;b&gt;Marking all as read.&lt;/b&gt;&lt;/span&gt;&lt;/font&gt;" style="shape=or;whiteSpace=wrap;html=1;labelBackgroundColor=none;strokeColor=#56517e;fontFamily=Times New Roman;fontSize=19;fillColor=#d0cee2;align=left;" vertex="1" parent="1">
                    <mxGeometry x="3310" y="-1550" width="210" height="210" as="geometry"/>
                </mxCell>
                <mxCell id="242" value="" style="edgeStyle=none;shape=connector;rounded=1;html=1;entryX=0.5;entryY=1;entryDx=0;entryDy=0;labelBackgroundColor=default;strokeColor=default;strokeWidth=6;fontFamily=Times New Roman;fontSize=50;fontColor=#1a17e8;endArrow=none;" edge="1" parent="1" source="235" target="240">
                    <mxGeometry relative="1" as="geometry">
                        <mxPoint x="3150" y="-1290" as="sourcePoint"/>
                        <mxPoint x="3310" y="-1445" as="targetPoint"/>
                        <Array as="points"/>
                    </mxGeometry>
                </mxCell>
                <mxCell id="240" value="&lt;font style=&quot;font-size: 28px;&quot; color=&quot;#ffffff&quot;&gt;Mark all as read&lt;/font&gt;" style="text;html=1;align=center;verticalAlign=middle;whiteSpace=wrap;rounded=0;labelBackgroundColor=none;fontFamily=Times New Roman;fontSize=21;" vertex="1" parent="1">
                    <mxGeometry x="3014" y="-1430" width="270" height="30" as="geometry"/>
                </mxCell>
                <mxCell id="247" style="edgeStyle=none;shape=connector;rounded=1;html=1;entryX=0;entryY=0.5;entryDx=0;entryDy=0;labelBackgroundColor=default;strokeColor=default;strokeWidth=6;fontFamily=Times New Roman;fontSize=50;fontColor=#1a17e8;endArrow=classic;" edge="1" parent="1" source="243" target="246">
                    <mxGeometry relative="1" as="geometry"/>
                </mxCell>
                <mxCell id="243" value="&lt;font color=&quot;#000000&quot;&gt;&lt;span style=&quot;font-size: 24px;&quot;&gt;&lt;b&gt;Marked all as Read&lt;/b&gt;&lt;/span&gt;&lt;/font&gt;" style="rounded=0;whiteSpace=wrap;html=1;labelBackgroundColor=none;fontFamily=Times New Roman;fontSize=27;fillColor=#d0cee2;strokeColor=#56517e;align=center;" vertex="1" parent="1">
                    <mxGeometry x="3630" y="-1505" width="360" height="120" as="geometry"/>
                </mxCell>
                <mxCell id="246" value="&lt;font face=&quot;Times New Roman&quot; color=&quot;#000000&quot;&gt;&lt;span style=&quot;font-size: 50px;&quot;&gt;&lt;b&gt;END&lt;/b&gt;&lt;/span&gt;&lt;/font&gt;" style="ellipse;whiteSpace=wrap;html=1;fillColor=#d0cee2;strokeColor=#56517e;labelBackgroundColor=none;" vertex="1" parent="1">
                    <mxGeometry x="4170" y="-1510" width="260" height="130" as="geometry"/>
                </mxCell>
                <mxCell id="251" style="edgeStyle=none;shape=connector;rounded=1;html=1;entryX=0;entryY=0.5;entryDx=0;entryDy=0;labelBackgroundColor=default;strokeColor=default;strokeWidth=6;fontFamily=Times New Roman;fontSize=50;fontColor=#1a17e8;endArrow=classic;" edge="1" parent="1" source="248" target="250">
                    <mxGeometry relative="1" as="geometry"/>
                </mxCell>
                <mxCell id="248" value="&lt;font color=&quot;#000000&quot;&gt;&lt;span style=&quot;font-size: 24px;&quot;&gt;&lt;b&gt;Full description of Natofication&lt;/b&gt;&lt;/span&gt;&lt;/font&gt;" style="rounded=0;whiteSpace=wrap;html=1;labelBackgroundColor=none;fontFamily=Times New Roman;fontSize=27;fillColor=#d0cee2;strokeColor=#56517e;align=center;" vertex="1" parent="1">
                    <mxGeometry x="3480" y="-1216.49" width="360" height="120" as="geometry"/>
                </mxCell>
                <mxCell id="255" style="edgeStyle=none;shape=connector;rounded=1;html=1;entryX=0.5;entryY=1;entryDx=0;entryDy=0;labelBackgroundColor=default;strokeColor=default;strokeWidth=6;fontFamily=Times New Roman;fontSize=50;fontColor=#1a17e8;endArrow=classic;" edge="1" parent="1" source="250" target="253">
                    <mxGeometry relative="1" as="geometry">
                        <Array as="points">
                            <mxPoint x="4300" y="-1160"/>
                        </Array>
                    </mxGeometry>
                </mxCell>
                <mxCell id="262" style="edgeStyle=none;shape=connector;rounded=1;html=1;entryX=0.5;entryY=1;entryDx=0;entryDy=0;labelBackgroundColor=default;strokeColor=default;strokeWidth=6;fontFamily=Times New Roman;fontSize=50;fontColor=#1a17e8;endArrow=classic;" edge="1" parent="1" source="250" target="258">
                    <mxGeometry relative="1" as="geometry"/>
                </mxCell>
                <mxCell id="250" value="&lt;font color=&quot;#000000&quot;&gt;&lt;span style=&quot;font-size: 30px;&quot;&gt;&lt;b&gt;Go back&amp;nbsp;Dashboard?&lt;/b&gt;&lt;/span&gt;&lt;/font&gt;" style="rhombus;whiteSpace=wrap;html=1;labelBackgroundColor=none;strokeColor=#56517e;fontFamily=Times New Roman;fontSize=19;fillColor=#d0cee2;" vertex="1" parent="1">
                    <mxGeometry x="3950" y="-1289.99" width="320" height="267.01" as="geometry"/>
                </mxCell>
                <mxCell id="256" style="edgeStyle=none;shape=connector;rounded=1;html=1;entryX=0.5;entryY=1;entryDx=0;entryDy=0;labelBackgroundColor=default;strokeColor=default;strokeWidth=6;fontFamily=Times New Roman;fontSize=50;fontColor=#1a17e8;endArrow=classic;" edge="1" parent="1" source="253" target="246">
                    <mxGeometry relative="1" as="geometry"/>
                </mxCell>
                <mxCell id="253" value="&lt;font style=&quot;font-size: 28px;&quot; color=&quot;#ffffff&quot;&gt;No&lt;/font&gt;" style="text;html=1;align=center;verticalAlign=middle;whiteSpace=wrap;rounded=0;labelBackgroundColor=none;fontFamily=Times New Roman;fontSize=21;" vertex="1" parent="1">
                    <mxGeometry x="4165" y="-1300" width="270" height="30" as="geometry"/>
                </mxCell>
                <mxCell id="264" style="edgeStyle=none;shape=connector;rounded=1;html=1;exitX=0.5;exitY=0;exitDx=0;exitDy=0;entryX=0;entryY=0.5;entryDx=0;entryDy=0;entryPerimeter=0;labelBackgroundColor=default;strokeColor=default;strokeWidth=6;fontFamily=Times New Roman;fontSize=50;fontColor=#1a17e8;endArrow=classic;" edge="1" parent="1" source="258" target="103">
                    <mxGeometry relative="1" as="geometry">
                        <Array as="points">
                            <mxPoint x="4110" y="-2550"/>
                            <mxPoint x="1270" y="-2550"/>
                            <mxPoint x="1270" y="-478"/>
                        </Array>
                    </mxGeometry>
                </mxCell>
                <mxCell id="258" value="&lt;font style=&quot;font-size: 28px;&quot; color=&quot;#ffffff&quot;&gt;Yes&lt;/font&gt;" style="text;html=1;align=center;verticalAlign=middle;whiteSpace=wrap;rounded=0;labelBackgroundColor=none;fontFamily=Times New Roman;fontSize=21;" vertex="1" parent="1">
                    <mxGeometry x="3975" y="-1585" width="270" height="30" as="geometry"/>
                </mxCell>
                <mxCell id="272" style="edgeStyle=none;shape=connector;rounded=1;html=1;entryX=0.5;entryY=1;entryDx=0;entryDy=0;labelBackgroundColor=default;strokeColor=default;strokeWidth=6;fontFamily=Times New Roman;fontSize=50;fontColor=#1a17e8;endArrow=classic;startArrow=none;" edge="1" parent="1" source="307" target="269">
                    <mxGeometry relative="1" as="geometry"/>
                </mxCell>
                <mxCell id="275" style="edgeStyle=none;shape=connector;rounded=1;html=1;entryX=0.5;entryY=1;entryDx=0;entryDy=0;labelBackgroundColor=default;strokeColor=default;strokeWidth=6;fontFamily=Times New Roman;fontSize=25;fontColor=#000000;endArrow=classic;startArrow=none;" edge="1" parent="1" source="303" target="268">
                    <mxGeometry relative="1" as="geometry"/>
                </mxCell>
                <mxCell id="266" value="&lt;font color=&quot;#000000&quot;&gt;&lt;span style=&quot;font-size: 30px;&quot;&gt;&lt;b&gt;Add or View Course?&lt;/b&gt;&lt;/span&gt;&lt;/font&gt;" style="rhombus;whiteSpace=wrap;html=1;labelBackgroundColor=none;strokeColor=#56517e;fontFamily=Times New Roman;fontSize=19;fillColor=#d0cee2;" vertex="1" parent="1">
                    <mxGeometry x="1720" y="-1441" width="320" height="267.01" as="geometry"/>
                </mxCell>
                <mxCell id="280" style="edgeStyle=none;shape=connector;rounded=1;html=1;labelBackgroundColor=default;strokeColor=default;strokeWidth=6;fontFamily=Times New Roman;fontSize=25;fontColor=#000000;endArrow=classic;" edge="1" parent="1" source="268" target="279">
                    <mxGeometry relative="1" as="geometry"/>
                </mxCell>
                <mxCell id="268" value="&lt;div style=&quot;&quot;&gt;&lt;font color=&quot;#000000&quot;&gt;&lt;b&gt;Adds course (course title, description, and learning objectives).&lt;/b&gt;&lt;/font&gt;&lt;br&gt;&lt;/div&gt;" style="shape=parallelogram;perimeter=parallelogramPerimeter;whiteSpace=wrap;html=1;fixedSize=1;labelBackgroundColor=none;strokeColor=#56517e;fontFamily=Times New Roman;fontSize=26;fillColor=#d0cee2;align=center;" vertex="1" parent="1">
                    <mxGeometry x="1470" y="-1601.5" width="340" height="120" as="geometry"/>
                </mxCell>
                <mxCell id="278" style="edgeStyle=none;shape=connector;rounded=1;html=1;labelBackgroundColor=default;strokeColor=default;strokeWidth=6;fontFamily=Times New Roman;fontSize=25;fontColor=#000000;endArrow=classic;" edge="1" parent="1" source="269" target="277">
                    <mxGeometry relative="1" as="geometry"/>
                </mxCell>
                <mxCell id="269" value="&lt;div style=&quot;&quot;&gt;&lt;font size=&quot;1&quot; color=&quot;#000000&quot;&gt;&lt;b style=&quot;font-size: 25px;&quot;&gt;Viewing a specific Course&lt;/b&gt;&lt;/font&gt;&lt;/div&gt;" style="shape=parallelogram;perimeter=parallelogramPerimeter;whiteSpace=wrap;html=1;fixedSize=1;labelBackgroundColor=none;strokeColor=#56517e;fontFamily=Times New Roman;fontSize=26;fillColor=#d0cee2;align=center;" vertex="1" parent="1">
                    <mxGeometry x="1930" y="-1604.5" width="340" height="120" as="geometry"/>
                </mxCell>
                <mxCell id="300" style="edgeStyle=none;shape=connector;rounded=1;html=1;entryX=0.5;entryY=1;entryDx=0;entryDy=0;labelBackgroundColor=default;strokeColor=default;strokeWidth=6;fontFamily=Times New Roman;fontSize=25;fontColor=#000000;endArrow=classic;" edge="1" parent="1" source="277" target="299">
                    <mxGeometry relative="1" as="geometry"/>
                </mxCell>
                <mxCell id="277" value="&lt;font color=&quot;#000000&quot;&gt;&lt;span style=&quot;font-size: 24px;&quot;&gt;&lt;b&gt;Specific Course&lt;/b&gt;&lt;/span&gt;&lt;/font&gt;" style="rounded=0;whiteSpace=wrap;html=1;labelBackgroundColor=none;fontFamily=Times New Roman;fontSize=27;fillColor=#d0cee2;strokeColor=#56517e;align=center;" vertex="1" parent="1">
                    <mxGeometry x="1920" y="-2128.5" width="360" height="120" as="geometry"/>
                </mxCell>
                <mxCell id="290" style="edgeStyle=none;shape=connector;rounded=1;html=1;labelBackgroundColor=default;strokeColor=default;strokeWidth=6;fontFamily=Times New Roman;fontSize=25;fontColor=#000000;endArrow=classic;" edge="1" parent="1" source="279" target="286">
                    <mxGeometry relative="1" as="geometry"/>
                </mxCell>
                <mxCell id="279" value="&lt;font color=&quot;#000000&quot;&gt;&lt;span style=&quot;font-size: 24px;&quot;&gt;&lt;b&gt;Course Added&lt;/b&gt;&lt;/span&gt;&lt;/font&gt;" style="rounded=0;whiteSpace=wrap;html=1;labelBackgroundColor=none;fontFamily=Times New Roman;fontSize=27;fillColor=#d0cee2;strokeColor=#56517e;align=center;" vertex="1" parent="1">
                    <mxGeometry x="1462" y="-1860" width="360" height="120" as="geometry"/>
                </mxCell>
                <mxCell id="291" style="edgeStyle=none;shape=connector;rounded=1;html=1;entryX=0;entryY=0.5;entryDx=0;entryDy=0;labelBackgroundColor=default;strokeColor=default;strokeWidth=6;fontFamily=Times New Roman;fontSize=25;fontColor=#000000;endArrow=classic;startArrow=none;" edge="1" parent="1" source="295" target="277">
                    <mxGeometry relative="1" as="geometry"/>
                </mxCell>
                <mxCell id="293" style="edgeStyle=none;shape=connector;rounded=1;html=1;entryX=1;entryY=0.5;entryDx=0;entryDy=0;labelBackgroundColor=default;strokeColor=default;strokeWidth=6;fontFamily=Times New Roman;fontSize=25;fontColor=#000000;endArrow=classic;" edge="1" parent="1" source="286" target="292">
                    <mxGeometry relative="1" as="geometry"/>
                </mxCell>
                <mxCell id="286" value="&lt;font color=&quot;#000000&quot;&gt;&lt;span style=&quot;font-size: 30px;&quot;&gt;&lt;b&gt;View Created Course?&lt;/b&gt;&lt;/span&gt;&lt;/font&gt;" style="rhombus;whiteSpace=wrap;html=1;labelBackgroundColor=none;strokeColor=#56517e;fontFamily=Times New Roman;fontSize=19;fillColor=#d0cee2;" vertex="1" parent="1">
                    <mxGeometry x="1482" y="-2202" width="320" height="267.01" as="geometry"/>
                </mxCell>
                <mxCell id="294" style="edgeStyle=none;shape=connector;rounded=1;html=1;entryX=0;entryY=0.75;entryDx=0;entryDy=0;entryPerimeter=0;labelBackgroundColor=default;strokeColor=default;strokeWidth=6;fontFamily=Times New Roman;fontSize=25;fontColor=#000000;endArrow=classic;" edge="1" parent="1" source="292" target="103">
                    <mxGeometry relative="1" as="geometry">
                        <Array as="points">
                            <mxPoint x="1100" y="-2068"/>
                            <mxPoint x="1100" y="-413"/>
                        </Array>
                    </mxGeometry>
                </mxCell>
                <mxCell id="292" value="&lt;font style=&quot;font-size: 28px;&quot; color=&quot;#ffffff&quot;&gt;No&lt;/font&gt;" style="text;html=1;align=center;verticalAlign=middle;whiteSpace=wrap;rounded=0;labelBackgroundColor=none;fontFamily=Times New Roman;fontSize=21;" vertex="1" parent="1">
                    <mxGeometry x="1280" y="-2083.5" width="100" height="30" as="geometry"/>
                </mxCell>
                <mxCell id="296" value="" style="edgeStyle=none;shape=connector;rounded=1;html=1;entryX=0;entryY=0.5;entryDx=0;entryDy=0;labelBackgroundColor=default;strokeColor=default;strokeWidth=6;fontFamily=Times New Roman;fontSize=25;fontColor=#000000;endArrow=none;" edge="1" parent="1" source="286" target="295">
                    <mxGeometry relative="1" as="geometry">
                        <mxPoint x="1801.9965512772542" y="-2068.4978776358143" as="sourcePoint"/>
                        <mxPoint x="1920" y="-2068.5" as="targetPoint"/>
                    </mxGeometry>
                </mxCell>
                <mxCell id="295" value="&lt;font style=&quot;font-size: 28px;&quot; color=&quot;#ffffff&quot;&gt;Yes&lt;/font&gt;" style="text;html=1;align=center;verticalAlign=middle;whiteSpace=wrap;rounded=0;labelBackgroundColor=none;fontFamily=Times New Roman;fontSize=21;" vertex="1" parent="1">
                    <mxGeometry x="1827" y="-2084" width="46" height="30" as="geometry"/>
                </mxCell>
                <mxCell id="299" value="&lt;font color=&quot;#000000&quot;&gt;&lt;span style=&quot;font-size: 30px;&quot;&gt;&lt;b&gt;Add Activity/Quiz &lt;br&gt;or Learning&amp;nbsp;&lt;br&gt;Materials&amp;nbsp;&lt;/b&gt;&lt;/span&gt;&lt;/font&gt;" style="rhombus;whiteSpace=wrap;html=1;labelBackgroundColor=none;strokeColor=#56517e;fontFamily=Times New Roman;fontSize=19;fillColor=#d0cee2;" vertex="1" parent="1">
                    <mxGeometry x="1939" y="-2520" width="320" height="267.01" as="geometry"/>
                </mxCell>
                <mxCell id="301" value="&lt;font color=&quot;#000000&quot;&gt;&lt;span style=&quot;font-size: 24px;&quot;&gt;&lt;b&gt;Specific Course&lt;/b&gt;&lt;/span&gt;&lt;/font&gt;" style="rounded=0;whiteSpace=wrap;html=1;labelBackgroundColor=none;fontFamily=Times New Roman;fontSize=27;fillColor=#d0cee2;strokeColor=#56517e;align=center;" vertex="1" parent="1">
                    <mxGeometry x="2390" y="-2540" width="360" height="120" as="geometry"/>
                </mxCell>
                <mxCell id="302" value="&lt;font color=&quot;#000000&quot;&gt;&lt;span style=&quot;font-size: 24px;&quot;&gt;&lt;b&gt;Specific Course&lt;/b&gt;&lt;/span&gt;&lt;/font&gt;" style="rounded=0;whiteSpace=wrap;html=1;labelBackgroundColor=none;fontFamily=Times New Roman;fontSize=27;fillColor=#d0cee2;strokeColor=#56517e;align=center;" vertex="1" parent="1">
                    <mxGeometry x="2390" y="-2270" width="360" height="120" as="geometry"/>
                </mxCell>
                <mxCell id="305" value="" style="edgeStyle=none;shape=connector;rounded=1;html=1;entryX=1;entryY=1;entryDx=0;entryDy=0;labelBackgroundColor=default;strokeColor=default;strokeWidth=6;fontFamily=Times New Roman;fontSize=25;fontColor=#000000;endArrow=none;" edge="1" parent="1" source="266" target="303">
                    <mxGeometry relative="1" as="geometry">
                        <mxPoint x="1794.3884305801412" y="-1369.5651714037608" as="sourcePoint"/>
                        <mxPoint x="1640" y="-1481.5" as="targetPoint"/>
                    </mxGeometry>
                </mxCell>
                <mxCell id="303" value="&lt;font style=&quot;font-size: 28px;&quot; color=&quot;#ffffff&quot;&gt;Add&lt;/font&gt;" style="text;html=1;align=center;verticalAlign=middle;whiteSpace=wrap;rounded=0;labelBackgroundColor=none;fontFamily=Times New Roman;fontSize=21;" vertex="1" parent="1">
                    <mxGeometry x="1674" y="-1441" width="46" height="30" as="geometry"/>
                </mxCell>
                <mxCell id="309" value="" style="edgeStyle=none;shape=connector;rounded=1;html=1;entryX=0;entryY=1;entryDx=0;entryDy=0;labelBackgroundColor=default;strokeColor=default;strokeWidth=6;fontFamily=Times New Roman;fontSize=50;fontColor=#1a17e8;endArrow=none;" edge="1" parent="1" source="266" target="307">
                    <mxGeometry relative="1" as="geometry">
                        <mxPoint x="1961.4564262920794" y="-1373.0322487992244" as="sourcePoint"/>
                        <mxPoint x="2100" y="-1484.5" as="targetPoint"/>
                    </mxGeometry>
                </mxCell>
                <mxCell id="307" value="&lt;font style=&quot;font-size: 28px;&quot; color=&quot;#ffffff&quot;&gt;View&lt;/font&gt;" style="text;html=1;align=center;verticalAlign=middle;whiteSpace=wrap;rounded=0;labelBackgroundColor=none;fontFamily=Times New Roman;fontSize=21;" vertex="1" parent="1">
                    <mxGeometry x="2004" y="-1430" width="46" height="30" as="geometry"/>
                </mxCell>
            </root>
        </mxGraphModel>
    </diagram>
</mxfile>